<svg width="320" height="130" viewBox="0 0 320 130" fill="none" xmlns="http://www.w3.org/2000/svg">
<rect x="23" y="17" width="97" height="97" rx="5.46105" stroke="url(#paint0_linear)" stroke-width="0.5"/>
<path opacity="0.3" d="M66.0333 69.4906L65.9698 69.4789L65.9062 69.4664L65.8426 69.4532L65.7789 69.4392L65.7151 69.4245L65.6513 69.409L65.5874 69.3927L65.5235 69.3756L65.4597 69.3578L65.3958 69.3392L65.3319 69.3198L65.268 69.2996L65.2041 69.2786L65.1403 69.2569L65.0765 69.2343L65.0128 69.211L64.9491 69.1869L64.8855 69.162L64.8219 69.1363L64.7585 69.1098L64.6952 69.0825L64.6319 69.0544L64.5688 69.0255L64.5058 68.9958L64.4429 68.9653L64.3802 68.9341L64.3176 68.902L64.2552 68.8691L64.193 68.8355L64.1309 68.801L64.0691 68.7657L64.0074 68.7297L63.946 68.6928L63.8848 68.6552L63.8238 68.6167L63.7631 68.5775L63.7026 68.5375L63.6423 68.4967L63.5824 68.4551L63.5227 68.4127L63.4633 68.3695L63.4042 68.3255L63.3455 68.2808L63.287 68.2353L63.2289 68.1889L63.1711 68.1419L63.1137 68.094L63.0566 68.0454L62.9999 67.996L62.9436 67.9458L62.8876 67.8948L62.8321 67.8431L62.777 67.7907L62.7222 67.7375L62.668 67.6835L62.6141 67.6288L62.5607 67.5733L62.5078 67.5171L62.4553 67.4601L62.4033 67.4025L62.3517 67.344L62.3007 67.2849L62.2502 67.225L62.2002 67.1644L62.1507 67.1031L62.1017 67.0411L62.0533 66.9783L62.0054 66.9149L61.9581 66.8508L61.9114 66.786L61.8652 66.7204L61.8196 66.6542L61.7747 66.5874L61.7303 66.5198L61.6865 66.4516L61.6434 66.3828L61.6009 66.3132L61.559 66.243L61.5178 66.1722L61.4772 66.1008L61.4373 66.0287L61.3981 65.956L61.3595 65.8826L61.3217 65.8087L61.2846 65.7341L61.2481 65.659L61.2124 65.5832L61.1774 65.5069L61.1431 65.43L61.1096 65.3525L61.0768 65.2744L61.0448 65.1958L61.0136 65.1166L60.9831 65.0369L60.9534 64.9567L60.9245 64.8759L60.8964 64.7947L60.8691 64.7129L60.8426 64.6305L60.8169 64.5477L60.792 64.4645L60.768 64.3807L60.7448 64.2965L60.7225 64.2118L60.701 64.1266L60.6804 64.041L60.6606 63.955L60.6418 63.8685L60.6238 63.7816L60.6067 63.6943L60.5904 63.6066L60.5751 63.5185L60.5607 63.43L60.5472 63.3412L60.5346 63.252L60.523 63.1624L60.5122 63.0725L60.5025 62.9823L60.4936 62.8917L60.4857 62.8008L60.4788 62.7096L60.4728 62.6181L60.4677 62.5264L60.4637 62.4343L60.4606 62.342L60.4585 62.2494L60.4573 62.1566L60.4572 62.0636L60.4581 61.9703L60.4599 61.8768L60.4627 61.7831L60.4666 61.6892L60.4715 61.5952L60.4773 61.5009L60.4842 61.4065L60.4922 61.312L60.5011 61.2173L60.5111 61.1225L60.5221 61.0276L60.5341 60.9326L60.5472 60.8374L60.5613 60.7422L60.5764 60.647L60.5926 60.5516L60.6099 60.4563L60.6282 60.3608L60.6475 60.2654L60.6679 60.1699L60.6894 60.0745L60.712 59.979L60.7355 59.8836L60.7602 59.7882L60.7859 59.6929L60.8127 59.5976L60.8406 59.5024L60.8695 59.4072L60.8995 59.3122L60.9306 59.2173L60.9628 59.1224L60.996 59.0277L61.0303 58.9332L61.0657 58.8388L61.1021 58.7446L61.1397 58.6505L61.1783 58.5566L61.218 58.463L61.2587 58.3695L61.3006 58.2763L61.3435 58.1833L61.3874 58.0905L61.4325 57.9981L61.4786 57.9059L61.5258 57.8139L61.5741 57.7223L61.6235 57.631L61.6739 57.54L61.7254 57.4494L61.7779 57.3591L61.8315 57.2691L61.8862 57.1796L61.9419 57.0904L61.9987 57.0016L62.0565 56.9132L62.1154 56.8252L62.1754 56.7377L62.2364 56.6506L62.2984 56.564L62.3615 56.4779L62.4256 56.3922L62.4907 56.307L62.5569 56.2223L62.6241 56.1382L62.6923 56.0546L62.7616 55.9715L62.8318 55.889L62.9031 55.807L62.9754 55.7256L63.0486 55.6449L63.1229 55.5647L63.1982 55.4851L63.2744 55.4062L63.3517 55.3279L63.4299 55.2502L63.5091 55.1732L63.5892 55.0969L63.6704 55.0213L63.7524 54.9463L63.8355 54.8721L63.9194 54.7986L64.0043 54.7258L64.0902 54.6538L64.1769 54.5825L64.2646 54.512L64.3532 54.4422L64.4427 54.3733L64.5331 54.3051L64.6244 54.2378L64.7166 54.1713L64.8096 54.1056L64.9035 54.0407L64.9983 53.9767L65.0939 53.9136L65.1904 53.8513L65.2877 53.79L65.3859 53.7295L65.4849 53.6699L65.5846 53.6113L65.6852 53.5536L65.7866 53.4968L65.8888 53.441L65.9917 53.3861L66.0955 53.3322L66.1999 53.2792L66.3052 53.2273L66.4112 53.1763L66.5179 53.1264L66.6253 53.0775L66.7335 53.0296L66.8423 52.9827L66.9518 52.9369L67.0621 52.8922L67.173 52.8485L67.2845 52.8058L67.3968 52.7643L67.5096 52.7238L67.6231 52.6845L67.7372 52.6462L67.852 52.6091L67.9673 52.5731L68.0832 52.5382L68.1997 52.5045L68.3168 52.4719L68.4344 52.4404L68.5525 52.4102L68.6712 52.3811L68.7904 52.3532L68.9101 52.3264L69.0304 52.3009L69.1511 52.2766L69.2722 52.2535L69.3939 52.2315L69.5159 52.2109L69.6384 52.1914L69.7614 52.1732L69.8847 52.1562L70.0085 52.1405L70.1326 52.126L70.2571 52.1128L70.382 52.1009L70.5072 52.0902L70.6328 52.0808L70.7586 52.0727L70.8848 52.0659L71.0113 52.0604L71.138 52.0562L71.2651 52.0533L71.3923 52.0517L71.5199 52.0514L71.6476 52.0524L71.7756 52.0548L71.9037 52.0585L72.0321 52.0635L72.1606 52.0698L72.2893 52.0776L72.4181 52.0866L72.547 52.097L72.6761 52.1088L72.8053 52.1219L72.9345 52.1363L73.0639 52.1522L73.1933 52.1693L73.3227 52.1879L73.4522 52.2078L73.5816 52.2291L73.7111 52.2518L73.8406 52.2759L73.97 52.3013L74.0994 52.3281L74.2288 52.3563L74.358 52.3859L74.4872 52.4169L74.6163 52.4492L74.7453 52.483L74.8741 52.5181L75.0028 52.5546L75.1313 52.5926L75.2597 52.6319L75.3878 52.6726L75.5158 52.7146L75.6435 52.7581L75.771 52.803L75.8982 52.8492L76.0252 52.8969L76.1519 52.9459L76.2783 52.9964L76.4044 53.0482L76.5302 53.1014L76.6556 53.156L76.7806 53.2119L76.9053 53.2693L77.0296 53.328L77.1535 53.3881L77.277 53.4496L77.4001 53.5124L77.5227 53.5767L77.6448 53.6422L77.7665 53.7092L77.8876 53.7775L78.0083 53.8472L78.1284 53.9182L78.248 53.9906L78.3671 54.0643L78.4856 54.1394L78.6035 54.2158L78.7208 54.2936L78.8374 54.3727L78.9535 54.4531L79.0689 54.5348L79.1837 54.6179L79.2977 54.7022L79.4111 54.7879L79.5238 54.8749L79.6358 54.9631L79.747 55.0527L79.8575 55.1436L79.9673 55.2357L80.0762 55.3291L80.1844 55.4238L80.2918 55.5197L80.3983 55.6169L80.504 55.7153L80.6089 55.8149L80.7129 55.9159L80.816 56.018L80.9182 56.1213L81.0196 56.2259L81.12 56.3316L81.2195 56.4386L81.318 56.5467L81.4156 56.656L81.5122 56.7665L81.6078 56.8782L81.7024 56.991L81.796 57.1049L81.8886 57.22L81.9801 57.3362L82.0706 57.4535L82.16 57.572L82.2483 57.6915L82.3355 57.8121L82.4217 57.9338L82.5067 58.0565L82.5906 58.1804L82.6733 58.3052L82.7549 58.4311L82.8353 58.558L82.9145 58.686L82.9925 58.8149L83.0693 58.9448L83.1449 59.0758L83.2193 59.2077L83.2924 59.3405L83.3643 59.4743L83.4349 59.609L83.5043 59.7447L83.5723 59.8812L83.6391 60.0187L83.7045 60.157L83.7686 60.2962L83.8314 60.4363L83.8928 60.5772L83.9529 60.719L84.0116 60.8616L84.0689 61.005L84.1249 61.1492L84.1794 61.2942L84.2326 61.4399L84.2843 61.5864L84.3346 61.7336L84.3835 61.8816L84.4309 62.0303L84.4769 62.1797L84.5214 62.3297L84.5644 62.4805L84.606 62.6319L84.6461 62.7839L84.6846 62.9366L84.7217 63.0898L84.7572 63.2437L84.7912 63.3982L84.8237 63.5532L84.8547 63.7088L84.884 63.8649L84.9119 64.0215L84.9381 64.1786L84.9629 64.3363L84.986 64.4944L85.0075 64.6529L85.0275 64.8119L85.0458 64.9714L85.0625 65.1312L85.0777 65.2915L85.0912 65.4521L85.1031 65.6131L85.1133 65.7744L85.122 65.936L85.1289 66.098L85.1343 66.2602L85.138 66.4228L85.14 66.5856L85.1404 66.7486L85.1391 66.9119L85.1361 67.0754L85.1314 67.2391L85.1251 67.4029L85.1171 67.5669L85.1074 67.7311L85.096 67.8954L85.0829 68.0598L85.0682 68.2242L85.0517 68.3888L85.0335 68.5534L85.0136 68.718L84.992 68.8827L84.9687 69.0474L84.9437 69.212L84.917 69.3766L84.8885 69.5412L84.8583 69.7057L84.8264 69.8701L84.7928 70.0344L84.7575 70.1986L84.7204 70.3626L84.6816 70.5265L84.6411 70.6902L84.5989 70.8537L84.5549 71.017L84.5092 71.18L84.4618 71.3428L84.4127 71.5054L84.3618 71.6676L84.3093 71.8296L84.255 71.9912L84.1989 72.1525L84.1412 72.3134L84.0817 72.474L84.0206 72.6341L83.9577 72.7938L83.8931 72.9531L83.8268 73.112L83.7587 73.2704L83.689 73.4283L83.6176 73.5856L83.5445 73.7425L83.4697 73.8988L83.3932 74.0546L83.315 74.2098L83.2351 74.3643L83.1535 74.5183L83.0703 74.6716L82.9854 74.8243L82.8988 74.9763L82.8106 75.1277L82.7207 75.2783L82.6292 75.4282L82.536 75.5773L82.4412 75.7257L82.3448 75.8733L82.2467 76.0202L82.147 76.1662L82.0457 76.3113L81.9428 76.4557L81.8383 76.5991L81.7322 76.7417L81.6245 76.8834L81.5152 77.0241L81.4043 77.164L81.2919 77.3028L81.178 77.4407L81.0624 77.5776L80.9454 77.7135L80.8268 77.8484L80.7067 77.9823L80.5851 78.115L80.462 78.2468L80.3373 78.3774L80.2112 78.5069L80.0837 78.6353L79.9546 78.7625L79.8241 78.8886L79.6922 79.0136L79.5588 79.1373L79.424 79.2598L79.2878 79.3811L79.1502 79.5012L79.0112 79.62L78.8708 79.7376L78.729 79.8538L78.5859 79.9688L78.4415 80.0824L78.2957 80.1947L78.1486 80.3057L78.0002 80.4153L77.8505 80.5235L77.6995 80.6304L77.5472 80.7358L77.3937 80.8398L77.2389 80.9424L77.0829 81.0435L76.9257 81.1431L76.7673 81.2413L76.6077 81.338L76.447 81.4332L76.285 81.5268L76.1219 81.6189L75.9577 81.7095L75.7924 81.7985L75.626 81.8859L75.4584 81.9718L75.2898 82.056L75.1202 82.1387L74.9495 82.2197L74.7778 82.299L74.6051 82.3767L74.4314 82.4528L74.2567 82.5271L74.081 82.5998L73.9044 82.6708L73.7269 82.7401L73.5484 82.8076L73.3691 82.8734L73.1888 82.9375L73.0078 82.9998L72.8258 83.0603L72.6431 83.1191L72.4595 83.1761L72.2752 83.2312L72.09 83.2846L71.9041 83.3362L71.7175 83.3859L71.5301 83.4337L71.3421 83.4798L71.1534 83.524L70.9639 83.5663L70.7739 83.6067L70.5832 83.6452L70.3919 83.6819L70.2 83.7166L70.0076 83.7495L69.8146 83.7804L69.621 83.8094L69.427 83.8365L69.2324 83.8616L69.0374 83.8848L68.8419 83.906L68.6459 83.9253L68.4496 83.9426L68.2528 83.9579L68.0557 83.9713L67.8582 83.9826L67.6604 83.992L67.4623 83.9993L67.2638 84.0047L67.0651 84.0081L66.8661 84.0094L66.6669 84.0087L66.4675 84.006L66.2679 84.0013L66.0681 83.9946L65.8681 83.9858L65.668 83.9749L65.4678 83.962L65.2675 83.9471L65.0671 83.9302L64.8667 83.9111L64.6663 83.8901L64.4658 83.8669L64.2654 83.8417L64.065 83.8145L63.8646 83.7851L63.6644 83.7537L63.4642 83.7203L63.2641 83.6848L63.0642 83.6472L62.8644 83.6075L62.6649 83.5658L62.4655 83.522L62.2664 83.4761L62.0675 83.4282L61.8689 83.3782L61.6705 83.3261L61.4725 83.272L61.2748 83.2157L61.0775 83.1575L60.8805 83.0971L60.684 83.0347L60.4878 82.9702L60.2921 82.9037L60.0969 82.8351L59.9022 82.7645L59.7079 82.6918L59.5142 82.6171L59.321 82.5403L59.1284 82.4615L58.9365 82.3806L58.7451 82.2977L58.5543 82.2128L58.3642 82.1258L58.1748 82.0369L57.9861 81.9459L57.7981 81.8529L57.6109 81.7579L57.4244 81.6609L57.2387 81.5619L57.0538 81.4609L56.8697 81.358L56.6865 81.2531L56.5041 81.1462L56.3227 81.0373L56.1421 80.9265L55.9625 80.8137L55.7839 80.699L55.6062 80.5824L55.4295 80.4638L55.2538 80.3434L55.0792 80.221L54.9056 80.0967L54.7331 79.9706L54.5617 79.8425L54.3914 79.7126L54.2223 79.5809L54.0543 79.4472L53.8875 79.3118L53.7219 79.1745L53.5575 79.0354L53.3944 78.8945L53.2325 78.7517L53.0719 78.6072L52.9126 78.461L52.7546 78.3129L52.5979 78.1631L52.4426 78.0116L52.2887 77.8583L52.1361 77.7033L51.985 77.5466L51.8353 77.3883L51.6871 77.2282L51.5403 77.0665L51.3951 76.9031L51.2513 76.7381L51.109 76.5715L50.9683 76.4032L50.8292 76.2334L50.6916 76.062L50.5556 75.889L50.4213 75.7144L50.2886 75.5384L50.1575 75.3608L50.0281 75.1817L49.9004 75.0011L49.7743 74.819L49.65 74.6355L49.5274 74.4505L49.4066 74.2641L49.2875 74.0763L49.1703 73.8871L49.0548 73.6965L48.9411 73.5046L48.8293 73.3113L48.7193 73.1167L48.6111 72.9208L48.5049 72.7236L48.4005 72.5251L48.298 72.3254L48.1975 72.1244L48.0989 71.9223L48.0022 71.7189L47.9075 71.5144L47.8148 71.3086L47.7241 71.1018L47.6353 70.8938L47.5486 70.6847L47.4639 70.4746L47.3813 70.2633L47.3007 70.0511L47.2222 69.8378L47.1458 69.6235L47.0714 69.4082L46.9992 69.192L46.9291 68.9748L46.8611 68.7567L46.7952 68.5377L46.7315 68.3178L46.67 68.0971L46.6106 67.8755L46.5535 67.6531L46.4985 67.4299L46.4457 67.206L46.3951 66.9813L46.3468 66.7558L46.3007 66.5297L46.2568 66.3029L46.2152 66.0754L46.1758 65.8472L46.1388 65.6185L46.1039 65.3892L46.0714 65.1592L46.0412 64.9288L46.0133 64.6978L45.9877 64.4663L45.9644 64.2343L45.9434 64.0019L45.9247 63.7691L45.9084 63.5358L45.8945 63.3021L45.8828 63.0681L45.8736 62.8338L45.8667 62.5991L45.8622 62.3641L45.86 62.1289L45.8602 61.8934L45.8628 61.6577L45.8678 61.4218L45.8751 61.1857L45.8849 60.9495L45.8971 60.7132L45.9116 60.4768L45.9286 60.2402L45.9479 60.0037L45.9697 59.7671L45.9939 59.5305L46.0205 59.294L46.0495 59.0574L46.081 58.821L46.1148 58.5847L46.1511 58.3484L46.1898 58.1124L46.2309 57.8765L46.2745 57.6408L46.3204 57.4053L46.3688 57.17L46.4196 56.9351L46.4729 56.7004L46.5285 56.4661L46.5866 56.232L46.6471 55.9984L46.71 55.7652L46.7753 55.5324L46.843 55.3L46.9132 55.0681L46.9857 54.8367L47.0607 54.6058L47.138 54.3755L47.2178 54.1457L47.2999 53.9166L47.3844 53.688L47.4714 53.4601L47.5607 53.2329L47.6524 53.0064L47.7464 52.7806L47.8428 52.5555L47.9416 52.3312L48.0427 52.1077L48.1462 51.885L48.252 51.6632L48.3602 51.4422L48.4707 51.2222L48.5835 51.003L48.6986 50.7848L48.8161 50.5676L48.9358 50.3513L49.0578 50.1361L49.1821 49.9219L49.3087 49.7087L49.4376 49.4967L49.5687 49.2857L49.702 49.0759L49.8376 48.8673L49.9754 48.6598L50.1155 48.4536L50.2577 48.2486L50.4022 48.0448L50.5488 47.8423L50.6976 47.6411L50.8486 47.4413L51.0017 47.2428L51.1569 47.0456L51.3143 46.8499L51.4738 46.6555L51.6354 46.4626L51.7991 46.2712L51.9649 46.0813L52.1327 45.8928L52.3026 45.7059L52.4745 45.5205L52.6484 45.3368L52.8244 45.1546L53.0023 44.974L53.1823 44.795L53.3641 44.6178L53.548 44.4422L53.7337 44.2683L53.9214 44.0961L54.111 43.9257L54.3025 43.757L54.4958 43.5902L54.691 43.4251L54.888 43.2619L55.0868 43.1005L55.2875 42.9409L55.4899 42.7833L55.6941 42.6276L55.9 42.4738L56.1077 42.3219L56.3171 42.172L56.5281 42.0241L56.7409 41.8782L56.9553 41.7343L57.1713 41.5925L57.389 41.4527L57.6082 41.315L57.8291 41.1794L58.0514 41.0459L58.2754 40.9145L58.5008 40.7853L58.7277 40.6583L58.9561 40.5334L59.186 40.4107L59.4173 40.2903L59.65 40.172L59.8841 40.0561L60.1196 39.9423L60.3564 39.8309L60.5945 39.7218L60.8339 39.6149L61.0746 39.5104L61.3166 39.4083L61.5598 39.3085L61.8042 39.211L62.0499 39.116L62.2966 39.0233L62.5445 38.9331L62.7936 38.8453L63.0437 38.7599L63.2949 38.6769L63.5471 38.5965L63.8004 38.5185L64.0547 38.443L64.3099 38.37L64.5661 38.2995L64.8232 38.2316L65.0812 38.1661L65.3401 38.1033L65.5998 38.043L65.8604 37.9852L66.1217 37.9301L66.3839 37.8775L66.6467 37.8275L66.9103 37.7802L67.1746 37.7354L67.4396 37.6933L67.7052 37.6538L67.9714 37.617L68.2382 37.5828L68.5056 37.5513L68.7735 37.5225L69.0419 37.4963L69.3108 37.4729L69.5802 37.4521L69.8499 37.434L70.1201 37.4186L70.3907 37.4059L70.6616 37.396L70.9329 37.3888L71.2044 37.3843L71.4762 37.3825L71.7482 37.3835L72.0204 37.3872L72.2929 37.3937L72.5655 37.4029L72.8382 37.4149L73.111 37.4296L73.3839 37.4471L73.6568 37.4674L73.9297 37.4904L74.2027 37.5162L74.4755 37.5448L74.7484 37.5762L75.0211 37.6103L75.2937 37.6472L75.5661 37.6869L75.8384 37.7293L76.1104 37.7746L76.3822 37.8226L76.6538 37.8734L76.925 37.927L77.196 37.9833L77.4665 38.0424L77.7367 38.1043L78.0065 38.169L78.2759 38.2365L78.5447 38.3067L78.8131 38.3796L79.081 38.4554L79.3483 38.5339L79.615 38.6151L79.8812 38.6992L80.1466 38.7859L80.4115 38.8754L80.6756 38.9677L80.939 39.0626L81.2017 39.1604L81.4635 39.2608L81.7246 39.3639L81.9848 39.4698L82.2442 39.5784L82.5027 39.6896L82.7603 39.8036L83.0169 39.9202L83.2725 40.0396L83.5272 40.1616L83.7808 40.2862L84.0333 40.4135L84.2848 40.5435L84.5351 40.6761L84.7843 40.8113L85.0324 40.9491L85.2792 41.0895L85.5249 41.2326L85.7692 41.3782L86.0123 41.5264L86.2541 41.6771L86.4945 41.8304L86.7336 41.9863L86.9713 42.1447L87.2076 42.3056L87.4425 42.469L87.6759 42.6348L87.9078 42.8032L88.1382 42.9741L88.367 43.1473L88.5943 43.3231L88.8199 43.5012L89.044 43.6818L89.2664 43.8647L89.4871 44.0501L89.7061 44.2378L89.9234 44.4278L90.139 44.6202L90.3527 44.8149L90.5647 45.0119L90.7749 45.2112L90.9832 45.4128L91.1896 45.6166L91.3942 45.8226L91.5968 46.0309L91.7975 46.2414L91.9962 46.454L92.1929 46.6688L92.3876 46.8857L92.5802 47.1048L92.7708 47.326L92.9593 47.5493L93.1457 47.7746L93.33 48.002L93.5121 48.2314L93.6921 48.4628L93.8698 48.6962L94.0454 48.9315L94.2187 49.1688L94.3897 49.4081L94.5585 49.6492L94.7249 49.8922L94.8891 50.1371L95.0508 50.3838L95.2103 50.6323L95.3673 50.8826L95.5219 51.1347L95.6741 51.3885L95.8239 51.644L95.9712 51.9013L96.116 52.1602L96.2584 52.4207L96.3982 52.6829L96.5354 52.9467L96.6701 53.2121L96.8023 53.479L96.9318 53.7475L97.0588 54.0174L97.1831 54.2888L97.3047 54.5617L97.4238 54.836L97.5401 55.1117L97.6537 55.3888L97.7647 55.6672L97.8729 55.9469L97.9784 56.228L98.0811 56.5103L98.1811 56.7938L98.2783 57.0786L98.3726 57.3645L98.4642 57.6516L98.553 57.9399L98.6389 58.2292L98.7219 58.5196L98.8021 58.8111L98.8795 59.1036L98.9539 59.397L99.0254 59.6915L99.094 59.9868L99.1597 60.2831L99.2225 60.5803L99.2823 60.8783L99.3392 61.1771L99.393 61.4767L99.444 61.777L99.4919 62.0781L99.5368 62.3799L99.5787 62.6823L99.6176 62.9854L99.6535 63.2891L99.6864 63.5934L99.7162 63.8982L99.743 64.2036L99.7667 64.5094L99.7873 64.8157L99.8049 65.1224L99.8194 65.4295L99.8308 65.737L99.8392 66.0448L99.8444 66.3529L99.8466 66.6613L99.8456 66.97L99.8415 67.2788L99.8344 67.5878L99.8241 67.897L99.8107 68.2063L99.7941 68.5156L99.7745 68.825L99.7517 69.1345L99.7258 69.4439L99.6967 69.7533L99.6646 70.0626L99.6292 70.3718L99.5908 70.6808L99.5492 70.9897L99.5045 71.2984L99.4566 71.6069L99.4056 71.9151L99.3515 72.223L99.2942 72.5305L99.2338 72.8377L99.1702 73.1445L99.1035 73.4509L99.0337 73.7569L98.9608 74.0623L98.8847 74.3672L98.8055 74.6716L98.7232 74.9754L98.6378 75.2785L98.5493 75.581L98.4577 75.8829L98.3629 76.184L98.2651 76.4844L98.1642 76.784L98.0602 77.0827L97.9531 77.3807L97.8429 77.6778L97.7297 77.9739L97.6134 78.2692L97.4941 78.5635L97.3717 78.8567L97.2463 79.149L97.1179 79.4402L96.9864 79.7303L96.852 80.0192L96.7145 80.307L96.5741 80.5937L96.4306 80.8791L96.2842 81.1632L96.1349 81.4461L95.9826 81.7277L95.8273 82.0079L95.6692 82.2868L95.5081 82.5643L95.3441 82.8403L95.1772 83.1149L95.0075 83.388L94.8349 83.6595L94.6594 83.9295L94.4811 84.1979L94.3 84.4647L94.116 84.7299L93.9293 84.9934L93.7398 85.2552L93.5476 85.5153L93.3526 85.7736L93.1548 86.0301L92.9544 86.2848L92.7513 86.5377L92.5454 86.7887L92.3369 87.0377L92.1258 87.2849L91.912 87.5301L91.6957 87.7733L91.4767 88.0145L91.2552 88.2537L91.0311 88.4908L90.8045 88.7257L90.5753 88.9586L90.3437 89.1893L90.1096 89.4179L89.873 89.6442L89.634 89.8683L89.3926 90.0902L89.1488 90.3098L88.9026 90.5271L88.6541 90.742L88.4032 90.9546L88.1501 91.1648L87.8946 91.3726L87.6369 91.5779L87.377 91.7808L87.1149 91.9813L86.8505 92.1792L86.584 92.3746L86.3154 92.5674L86.0446 92.7577L85.7718 92.9454L85.4968 93.1304L85.2199 93.3128L84.9409 93.4926L84.6599 93.6696L84.377 93.844L84.0921 94.0156L83.8054 94.1844L83.5167 94.3505L83.2261 94.5138L82.9338 94.6743L82.6396 94.8319L82.3437 94.9867L82.046 95.1386L81.7466 95.2877L81.4455 95.4338L81.1427 95.5769L80.8383 95.7172L80.5323 95.8544L80.2246 95.9887L79.9155 96.1199L79.6048 96.2481L79.2927 96.3733L78.9791 96.4955L78.664 96.6145L78.3476 96.7305L78.0297 96.8434L77.7106 96.9531L77.3901 97.0597L77.0683 97.1631L76.7453 97.2634L76.4211 97.3605L76.0957 97.4544L75.7692 97.5451L75.4415 97.6325L75.1127 97.7167L74.7829 97.7977L74.4521 97.8754L74.1202 97.9498L73.7874 98.021L73.4537 98.0888L73.1191 98.1533L72.7836 98.2145L72.4473 98.2724L72.1102 98.3269L71.7723 98.3781L71.4337 98.4259L71.0944 98.4703L70.7544 98.5114L70.4138 98.549L70.0726 98.5833L69.7309 98.6141L69.3886 98.6416L69.0459 98.6656L68.7026 98.6861L68.359 98.7033L68.0149 98.717L67.6706 98.7272L67.3258 98.734L66.9808 98.7373L66.6356 98.7372L66.2901 98.7336L65.9445 98.7265L65.5987 98.7159L65.2528 98.7019L64.9068 98.6843L64.5608 98.6633L64.2148 98.6388L63.8688 98.6108L63.5228 98.5793L63.177 98.5443L62.8313 98.5058L62.4858 98.4638L62.1405 98.4183L61.7954 98.3693L61.4506 98.3168L61.1061 98.2608L60.762 98.2013L60.4182 98.1383L60.0749 98.0718L59.732 98.0018L59.3896 97.9284L59.0478 97.8514L58.7065 97.771L58.3658 97.6871L58.0257 97.5997L57.6863 97.5088L57.3476 97.4145L57.0096 97.3167L56.6725 97.2154L56.3361 97.1107L56.0005 97.0025L55.6659 96.891L55.3322 96.7759L54.9994 96.6575L54.6676 96.5356L54.3368 96.4103L54.0071 96.2817L53.6785 96.1496L53.351 96.0141L53.0246 95.8753L52.6995 95.7331L52.3756 95.5876L52.0529 95.4387L51.7316 95.2865L51.4116 95.1309L51.0929 94.9721L50.7757 94.8099L50.4599 94.6445L50.1455 94.4757L49.8327 94.3037L49.5214 94.1285L49.2117 93.95L48.9035 93.7684L48.5971 93.5835L48.2923 93.3954L47.9892 93.2041L47.6878 93.0097L47.3882 92.8121L47.0904 92.6114L46.7945 92.4076L46.5004 92.2007L46.2082 91.9907L45.918 91.7777L45.6297 91.5616L45.3434 91.3425L45.0592 91.1203L44.777 90.8952L44.4969 90.6671L44.2189 90.4361L43.9431 90.2021L43.6695 89.9652L43.3981 89.7254L43.1289 89.4828L42.862 89.2373L42.5974 88.9889L42.3352 88.7378L42.0753 88.4839L41.8179 88.2272L41.5628 87.9678L41.3102 87.7057L41.0601 87.4408L40.8125 87.1733L40.5674 86.9032L40.3249 86.6304L40.085 86.355L39.8478 86.0771L39.6131 85.7966L39.3812 85.5136L39.152 85.2281L38.9255 84.9401L38.7017 84.6496L38.4808 84.3568L38.2626 84.0615L38.0473 83.7639L37.8349 83.464L37.6254 83.1617L37.4187 82.8572L37.215 82.5504L37.0143 82.2413L36.8165 81.9301L36.6218 81.6167L36.4301 81.3012L36.2414 80.9836L36.0559 80.6638L35.8734 80.3421L35.6941 80.0183L35.5179 79.6925L35.3449 79.3647L35.1751 79.035L35.0084 78.7035L34.8451 78.37L34.6849 78.0347L34.5281 77.6977L34.3745 77.3588L34.2243 77.0182L34.0774 76.6759L33.9338 76.3319L33.7937 75.9863L33.6569 75.6391L33.5235 75.2903L33.3935 74.94L33.267 74.5881L33.144 74.2348L33.0244 73.88L32.9084 73.5238L32.7958 73.1663L32.6868 72.8074L32.5813 72.4473L32.4793 72.0858L32.381 71.7231L32.2862 71.3592L32.195 70.9942L32.1075 70.628L32.0235 70.2608L31.9432 69.8925L31.8666 69.5232L31.7936 69.1529L31.7243 68.7816L31.6587 68.4095L31.5968 68.0364L31.5386 67.6626L31.4842 67.2879L31.4334 66.9125L31.3864 66.5363L31.3432 66.1595L31.3037 65.782L31.268 65.4039L31.2361 65.0253L31.2079 64.6461L31.1836 64.2664L31.163 63.8862L31.1463 63.5056L31.1333 63.1247L31.1242 62.7434L31.1189 62.3618L31.1174 61.9799L31.1198 61.5978L31.126 61.2154L31.1361 60.833L31.15 60.4504L31.1677 60.0678L31.1893 59.6851L31.2148 59.3024L31.2441 58.9197L31.2773 58.5372L31.3143 58.1547L31.3552 57.7724L31.4 57.3903L31.4486 57.0085L31.5011 56.6269L31.5574 56.2456L31.6176 55.8647L31.6817 55.4842L31.7496 55.1041L31.8214 54.7245L31.897 54.3454L31.9765 53.9668L32.0599 53.5888L32.147 53.2115L32.238 52.8348L32.3329 52.4588L32.4316 52.0835L32.534 51.7091L32.6404 51.3355L32.7505 50.9627L32.8644 50.5908L32.9821 50.2199L33.1037 49.8499L33.2289 49.481L33.358 49.1131L33.4909 48.7463L33.6275 48.3806L33.7678 48.0161L33.9119 47.6528L34.0597 47.2908L34.2112 46.93L34.3664 46.5706L34.5254 46.2125L34.688 45.8559L34.8543 45.5006L35.0242 45.1469L35.1978 44.7946L35.375 44.4439L35.5558 44.0948L35.7403 43.7473L35.9283 43.4015L36.1199 43.0574L36.3151 42.715L36.5138 42.3744L36.716 42.0356L36.9218 41.6986L37.131 41.3635L37.3437 41.0304L37.5599 40.6992L37.7796 40.37L38.0026 40.0428L38.2291 39.7177L38.4589 39.3946L38.6921 39.0738L38.9287 38.755L39.1686 38.4385L39.4118 38.1242L39.6583 37.8122L39.908 37.5025L40.161 37.1951L40.4173 36.8901L40.6767 36.5876L40.9393 36.2874L41.205 35.9897L41.4739 35.6946L41.7459 35.402L42.021 35.1119L42.2991 34.8245L42.5803 34.5397L42.8645 34.2576L43.1517 33.9781L43.4418 33.7014L43.7348 33.4275L44.0308 33.1564L44.3297 32.8881L44.6314 32.6226L44.9359 32.36L45.2432 32.1004L45.5533 31.8437L45.8662 31.59L46.1817 31.3393L46.5 31.0916L46.8209 30.847L47.1444 30.6054L47.4705 30.367L47.7992 30.1318L48.1304 29.8997L48.4641 29.6708L48.8004 29.4451L49.139 29.2227L49.4801 29.0036L49.8235 28.7878L50.1693 28.5753L50.5174 28.3662L50.8678 28.1605L51.2204 27.9582L51.5753 27.7593L51.9323 27.5639L52.2915 27.3719L52.6528 27.1835L53.0162 26.9985L53.3816 26.8172L53.7491 26.6394L54.1185 26.4652L54.4899 26.2946L54.8632 26.1277L55.2383 25.9644L55.6153 25.8048L55.9941 25.6489L56.3746 25.4967L56.7569 25.3483L57.1408 25.2036L57.5265 25.0627L57.9137 24.9256L58.3025 24.7923L58.6929 24.6628L59.0847 24.5372L59.478 24.4155L59.8728 24.2976L60.2689 24.1837L60.6664 24.0737L61.0652 23.9676L61.4652 23.8654L61.8665 23.7672L62.269 23.673L62.6727 23.5828L63.0774 23.4966L63.4833 23.4144L63.8901 23.3362L64.298 23.2621L64.7068 23.192L65.1166 23.126L65.5272 23.0641L65.9386 23.0063L66.3508 22.9526L66.7638 22.9029L67.1775 22.8574L67.5919 22.8161L68.0069 22.7788L68.4225 22.7457L68.8386 22.7168L69.2552 22.692L69.6723 22.6714L70.0898 22.655L70.5077 22.6428L70.9259 22.6347L71.3445 22.6309L71.7632 22.6312L72.1822 22.6357L72.6014 22.6445L73.0207 22.6574L73.44 22.6746L73.8594 22.696L74.2788 22.7216L74.6982 22.7515L75.1175 22.7855L75.5366 22.8238L75.9556 22.8663L76.3743 22.9131L76.7928 22.964L77.211 23.0192L77.6289 23.0786L78.0464 23.1423L78.4634 23.2101L78.88 23.2822L79.2961 23.3585L79.7116 23.439L80.1265 23.5238L80.5408 23.6127L80.9544 23.7058L81.3672 23.8032L81.7793 23.9047L82.1906 24.0104L82.601 24.1203L83.0106 24.2344L83.4191 24.3526L83.8268 24.475L84.2333 24.6015L84.6389 24.7322L85.0433 24.867L85.4465 25.006L85.8486 25.1491L86.2494 25.2962L86.649 25.4475L87.0472 25.6029L87.4441 25.7623L87.8396 25.9258L88.2336 26.0933L88.6262 26.2649L89.0172 26.4405L89.4067 26.6201L89.7945 26.8038L90.1807 26.9914L90.5652 27.1829L90.948 27.3785L91.329 27.5779L91.7082 27.7813L92.0855 27.9886L92.461 28.1998L92.8345 28.4148L93.206 28.6337L93.5755 28.8565L93.943 29.083L94.3084 29.3134L94.6716 29.5475L95.0327 29.7854L95.3916 30.0271L95.7482 30.2724L96.1025 30.5215L96.4545 30.7742L96.8042 31.0306L97.1514 31.2907L97.4962 31.5543L97.8386 31.8215L98.1784 32.0923L98.5156 32.3667L98.8503 32.6445L99.1824 32.9259L99.5118 33.2107L99.8385 33.499L100.162 33.7907L100.484 34.0857L100.802 34.3842L101.118 34.686L101.43 34.9911L101.74 35.2995L102.047 35.6111L102.351 35.926L102.652 36.2441L102.949 36.5653L103.244 36.8897L103.536 37.2173L103.824 37.5479L104.109 37.8815L104.391 38.2182L104.67 38.5579L104.946 38.9005L105.218 39.246L105.487 39.5945L105.753 39.9458L106.015 40.3L106.273 40.657L106.529 41.0167L106.78 41.3792L107.029 41.7443L107.273 42.1122L107.515 42.4826L107.752 42.8557L107.986 43.2313L108.216 43.6095L108.443 43.9901L108.666 44.3733L108.885 44.7588L109.1 45.1467L109.312 45.5369L109.52 45.9295L109.724 46.3243L109.924 46.7214L110.12 47.1207L110.312 47.5221L110.5 47.9257L110.685 48.3313L110.865 48.739L111.042 49.1487L111.214 49.5603L111.382 49.9739L111.546 50.3893L111.707 50.8066L111.863 51.2257L112.015 51.6466L112.162 52.0692L112.306 52.4935L112.445 52.9194L112.58 53.3469L112.711 53.776L112.838 54.2066L112.961 54.6387L113.079 55.0722L113.193 55.5071L113.302 55.9433L113.408 56.3809L113.508 56.8197L113.605 57.2597L113.697 57.7009L113.785 58.1432L113.868 58.5867L113.947 59.0312L114.022 59.4766L114.092 59.9231L114.158 60.3704L114.219 60.8186L114.276 61.2677L114.328 61.7175L114.376 62.168L114.419 62.6193L114.458 63.0712L114.492 63.5237L114.522 63.9767L114.547 64.4303L114.568 64.8843L114.584 65.3388L114.596 65.7936L114.603 66.2487L114.605 66.7042L114.603 67.1598L114.597 67.6157L114.586 68.0717L114.57 68.5278L114.549 68.984L114.524 69.4401L114.495 69.8962L114.461 70.3523L114.422 70.8082L114.379 71.2639L114.331 71.7194L114.278 72.1747L114.221 72.6296L114.159 73.0842L114.093 73.5383L114.022 73.992L113.947 74.4452L113.867 74.8978L113.782 75.3499L113.693 75.8013L113.599 76.252L113.501 76.702L113.398 77.1512L113.29 77.5996L113.178 78.0471L113.062 78.4937L112.941 78.9394L112.815 79.384L112.685 79.8276L112.551 80.27L112.411 80.7113L112.268 81.1515L112.12 81.5904L111.967 82.028L111.81 82.4642L111.649 82.8991L111.483 83.3326L111.313 83.7646L111.138 84.1951L110.959 84.624L110.775 85.0514L110.587 85.4771L110.395 85.9011L110.198 86.3233L109.998 86.7438L109.792 87.1625L109.583 87.5793L109.369 87.9942L109.151 88.4071L108.929 88.818L108.702 89.2269L108.472 89.6337L108.237 90.0384L107.998 90.4409L107.754 90.8411L107.507 91.2391L107.256 91.6349L107 92.0282L106.741 92.4192L106.477 92.8078L106.209 93.1939L105.938 93.5775L105.662 93.9585L105.383 94.3369L105.099 94.7127L104.812 95.0859L104.521 95.4563L104.226 95.8239L103.927 96.1888L103.624 96.5508L103.318 96.91L103.007 97.2662L102.693 97.6195L102.376 97.9698L102.055 98.3171L101.73 98.6613L101.401 99.0024L101.069 99.3404L100.734 99.6752L100.395 100.007L100.052 100.335L99.7061 100.66L99.3567 100.982L99.0039 101.3L98.6478 101.615L98.2883 101.927L97.9256 102.235L97.5596 102.539L97.1904 102.84L96.818 103.138L96.4424 103.431L96.0638 103.722L95.6821 104.008L95.2973 104.291L94.9095 104.57L94.5188 104.845L94.1251 105.117L93.7285 105.385L93.3291 105.648L92.9268 105.908L92.5218 106.164L92.114 106.416L91.7035 106.665L91.2903 106.909L90.8745 107.149L90.4561 107.385L90.0352 107.617L89.6118 107.844L89.1858 108.068L88.7575 108.288L88.3268 108.503L87.8937 108.714L87.4583 108.921L87.0206 109.123L86.5808 109.321L86.1387 109.515L85.6945 109.705L85.2482 109.89L84.7999 110.071L84.3495 110.247L83.8972 110.419L83.443 110.586L82.9869 110.749L82.5289 110.908L82.0692 111.062L81.6077 111.211L81.1446 111.356L80.6797 111.496L80.2133 111.632L79.7453 111.763L79.2758 111.889L78.8048 112.011L78.3324 112.128L77.8586 112.241L77.3835 112.348L76.9071 112.451L76.4294 112.549L75.9506 112.643L75.4706 112.732L74.9896 112.816L74.5074 112.895L74.0243 112.969L73.5402 113.039L73.0552 113.103L72.5694 113.163L72.0827 113.218L71.5953 113.269L71.1072 113.314L70.6184 113.354L72.0399 114" stroke="url(#paint1_linear)" stroke-width="1.93341"/>
<path fill-rule="evenodd" clip-rule="evenodd" d="M71.9767 38.4944C72.8559 38.1348 73.7351 37.9551 74.6142 37.9551C75.4348 37.9551 76.2846 38.1049 77.1638 38.4045C78.0429 38.7041 78.8342 39.2135 79.5375 39.9326C80.2408 40.5918 80.8269 41.5206 81.2958 42.7191C81.7647 43.8577 81.9991 45.2659 81.9991 46.9438C81.9991 47.9625 81.7061 49.221 81.12 50.7191C80.5925 52.1573 79.6254 53.6854 78.2188 55.3034C77.1638 56.5019 76.2846 57.5506 75.5813 58.4494C74.9366 59.2884 74.4091 60.0674 73.9988 60.7865C73.6471 61.4457 73.3834 62.1049 73.2076 62.764C73.0317 63.4232 72.9438 64.1423 72.9438 64.9214C72.9438 66.4794 73.3834 68.0674 74.2625 69.6854C75.2003 71.3034 76.6949 73.2509 78.7463 75.5281C80.9735 78.0449 82.5559 80.1723 83.4937 81.9101C84.4901 83.588 84.9883 85.1161 84.9883 86.4944C84.9883 88.8315 84.5194 90.4794 83.5816 91.4382C82.7025 92.3371 81.7647 92.7865 80.7683 92.7865C79.9478 92.7865 79.1272 92.5468 78.3067 92.0674C77.5447 91.588 76.6949 90.9588 75.7571 90.1798C75.4641 90 75.2003 89.8502 74.9659 89.7303C74.79 89.5506 74.5556 89.4607 74.2625 89.4607C73.9109 89.4607 73.5299 89.6704 73.1196 90.0899C72.768 90.4494 72.4163 90.9588 72.0646 91.618C71.713 92.2172 71.4199 92.9064 71.1855 93.6854C71.0097 94.4644 70.9217 95.2135 70.9217 95.9326C70.9217 96.3521 71.1562 96.6817 71.6251 96.9214C72.1526 97.221 72.768 97.4307 73.4713 97.5506C74.1746 97.7303 74.878 97.8502 75.5813 97.9101C76.3432 97.97 76.9586 98 77.4275 98C79.7719 98 81.9991 97.5805 84.1091 96.7416C86.2191 95.9026 88.0653 94.7641 89.6478 93.3259C91.2889 91.8876 92.5783 90.1798 93.5161 88.2023C94.5125 86.2247 95.0107 84.0974 95.0107 81.8202C95.0107 79.9026 94.4539 78.015 93.3403 76.1573C92.2853 74.2397 90.527 71.9626 88.0653 69.3258C86.0726 67.2285 84.7245 65.5206 84.0212 64.2023C83.3765 62.824 83.0541 61.6854 83.0541 60.7865C83.0541 59.8876 83.2886 58.9288 83.7575 57.9101C84.2263 56.8315 85.1641 55.4832 86.5708 53.8652C87.5671 52.7266 88.3877 51.7378 89.0324 50.8989C89.6771 50 90.1753 49.221 90.527 48.5618C90.9372 47.9026 91.201 47.3034 91.3182 46.764C91.494 46.1648 91.582 45.5655 91.582 44.9663C91.582 41.6105 90.0874 38.9438 87.0983 36.9663C84.1677 34.9888 80.1822 34 75.1417 34C72.7387 34 70.4529 34.4494 68.2843 35.3483C66.1743 36.2472 64.2988 37.5356 62.6577 39.2135C62.161 39.7401 61.6961 40.3021 61.263 40.8995C61.263 40.8931 61.263 40.8867 61.263 40.8803C61.263 40.8803 61.2444 40.9175 61.1954 40.9934C61.1407 41.0699 61.0864 41.147 61.0327 41.2247C60.7861 41.5536 60.3026 42.1231 59.4063 42.9554C58.5716 43.7305 56.7374 43.6359 55.8737 43.5815C55.3654 43.5815 54.853 43.5543 54.3427 43.5C54.096 43.4737 53.8173 43.4093 53.533 43.3437C53.2292 43.2735 52.919 43.2019 52.635 43.1738L52.635 43.9383L52.635 44.4789V44.8052C52.635 45.6754 52.8706 46.1921 53.3416 46.3553C54.2323 46.522 57.3677 48.4161 57.3677 49.5867C57.3677 49.9669 57.4066 53.3668 57.4706 58.3252V91.4382C57.4706 92.3371 57.2362 92.9963 56.7673 93.4157C56.357 93.7753 55.302 94.1348 53.6023 94.4944C52.9576 94.6142 52.6353 95.0038 52.6353 95.6629V96.5618C52.6353 96.8614 52.6939 97.1311 52.8111 97.3708C54.335 97.2509 55.9467 97.1311 57.6465 97.0112C59.3462 96.9513 60.87 96.9214 62.2181 96.9214C63.3903 96.9214 64.416 96.9513 65.2951 97.0112C66.1743 97.1311 67.3465 97.2509 68.8118 97.3708C68.929 96.7715 68.9876 96.2023 68.9876 95.6629C68.9876 95.3633 68.8704 95.1236 68.6359 94.9438C68.4015 94.7041 68.1964 94.4345 68.0205 94.1348C67.6102 93.7154 67.4051 92.9663 67.4051 91.8876V47.573C67.4051 45.7753 67.6102 44.2772 68.0205 43.0787C68.4308 41.8202 68.9876 40.8315 69.6909 40.1124C70.3942 39.3333 71.1562 38.794 71.9767 38.4944Z" fill="#313335"/>
<path d="M129.027 38.0428H139.224C142.005 38.0428 144.025 38.6727 145.285 39.9324C146.569 41.1922 147.21 42.7847 147.21 44.7099C147.21 47.0868 146.141 48.7982 144.002 49.844C145.38 50.3431 146.402 51.1275 147.068 52.1971C147.757 53.2429 148.102 54.3838 148.102 55.6198C148.102 57.6164 147.412 59.3515 146.034 60.8252C144.679 62.2751 142.587 63 139.759 63H129.027V38.0428ZM138.654 48.097C140.032 48.097 141.078 47.8237 141.791 47.277C142.528 46.7303 142.896 45.9816 142.896 45.0308C142.896 43.0105 141.708 42.0003 139.331 42.0003H133.306V48.097H138.654ZM140.008 59.0425C141.339 59.0425 142.29 58.7216 142.861 58.0799C143.455 57.4143 143.752 56.63 143.752 55.7268C143.752 53.2786 142.16 52.0545 138.974 52.0545H133.306V59.0425H140.008ZM153.082 63V39.2194L157.253 37.2584V63H153.082ZM170.243 63.4278C167.676 63.4278 165.644 62.584 164.147 60.8965C162.649 59.2089 161.901 56.8795 161.901 53.9085C161.901 50.9374 162.649 48.608 164.147 46.9204C165.644 45.2091 167.676 44.3534 170.243 44.3534C172.81 44.3534 174.843 45.2091 176.34 46.9204C177.861 48.608 178.622 50.9374 178.622 53.9085C178.622 56.8795 177.873 59.2089 176.376 60.8965C174.878 62.584 172.834 63.4278 170.243 63.4278ZM170.243 59.4347C171.551 59.4347 172.573 58.9474 173.31 57.9729C174.07 56.9984 174.45 55.6436 174.45 53.9085C174.45 52.1733 174.07 50.8066 173.31 49.8083C172.573 48.8101 171.551 48.3109 170.243 48.3109C168.984 48.3109 167.973 48.8219 167.213 49.844C166.452 50.8423 166.072 52.1971 166.072 53.9085C166.072 55.6198 166.44 56.9746 167.177 57.9729C167.938 58.9474 168.96 59.4347 170.243 59.4347ZM190.328 63.4278C187.832 63.4278 185.848 62.584 184.374 60.8965C182.924 59.2089 182.199 56.8795 182.199 53.9085C182.199 50.9374 182.924 48.608 184.374 46.9204C185.848 45.2091 187.832 44.3534 190.328 44.3534C194.084 44.3534 196.496 46.0291 197.566 49.3805L193.608 50.6997C193.014 49.1309 191.968 48.3466 190.471 48.3466C189.211 48.3466 188.225 48.8457 187.511 49.844C186.798 50.8423 186.442 52.1971 186.442 53.9085C186.442 55.596 186.787 56.939 187.476 57.9373C188.189 58.9118 189.14 59.399 190.328 59.399C192.016 59.399 193.121 58.5196 193.644 56.7607L197.637 57.9729C196.591 61.6095 194.155 63.4278 190.328 63.4278ZM218.073 63H213.51L208.305 52.9458L206.272 54.9424V63H202.101V39.2194L206.272 37.2584V50.0579L211.406 44.7813H216.469L211.299 49.951L218.073 63ZM229.872 63.4278C227.59 63.4278 225.617 62.8574 223.953 61.7165C222.313 60.5518 221.149 58.9712 220.459 56.9746L224.417 55.5128C224.94 56.6775 225.689 57.6164 226.663 58.3294C227.638 59.0187 228.755 59.3634 230.014 59.3634C231.322 59.3634 232.356 59.0663 233.116 58.4721C233.901 57.8778 234.293 57.0222 234.293 55.905C234.293 55.4534 234.186 55.0375 233.972 54.6572C233.758 54.2531 233.508 53.9203 233.223 53.6589C232.962 53.3974 232.558 53.136 232.011 52.8745C231.464 52.6131 231.001 52.411 230.621 52.2684C230.24 52.102 229.682 51.9 228.945 51.6623C227.994 51.3295 227.257 51.0681 226.734 50.8779C226.235 50.6878 225.582 50.3788 224.773 49.951C223.989 49.4994 223.383 49.0477 222.955 48.5961C222.551 48.1445 222.183 47.5503 221.85 46.8135C221.541 46.0529 221.386 45.221 221.386 44.3178C221.386 42.4163 222.123 40.8238 223.597 39.5402C225.071 38.2567 227.067 37.615 229.587 37.615C231.678 37.615 233.413 38.1141 234.792 39.1124C236.171 40.0869 237.098 41.3704 237.573 42.9629L233.722 44.2465C232.962 42.5351 231.488 41.6794 229.301 41.6794C228.184 41.6794 227.305 41.9171 226.663 42.3925C226.045 42.8441 225.736 43.4977 225.736 44.3534C225.736 44.9239 225.974 45.4349 226.449 45.8865C226.948 46.3381 227.471 46.6828 228.018 46.9204C228.588 47.1344 229.42 47.4196 230.514 47.7761C231.227 48.0376 231.761 48.2396 232.118 48.3822C232.498 48.5011 233.021 48.715 233.687 49.024C234.352 49.333 234.875 49.6182 235.255 49.8797C235.636 50.1173 236.064 50.4501 236.539 50.8779C237.038 51.3058 237.418 51.7574 237.68 52.2328C237.941 52.6844 238.167 53.231 238.357 53.8728C238.547 54.4908 238.643 55.1682 238.643 55.905C238.643 58.2344 237.811 60.0764 236.147 61.4313C234.507 62.7623 232.415 63.4278 229.872 63.4278ZM246.507 63L241.516 44.7813H245.616L247.969 54.8711C248.088 55.4178 248.23 56.1308 248.397 57.0103C248.516 56.3685 248.67 55.6555 248.86 54.8711L251.534 44.7813H255.349L257.987 54.8711C258.178 55.6555 258.332 56.3685 258.451 57.0103C258.617 56.1308 258.76 55.4178 258.879 54.8711L261.267 44.7813H265.368L260.376 63H256.668L253.994 53.1597C253.638 51.7574 253.448 50.9255 253.424 50.664C253.329 51.1394 253.139 51.9713 252.853 53.1597L250.179 63H246.507ZM279.326 63V61.5382C278.113 62.798 276.497 63.4278 274.477 63.4278C272.528 63.4278 270.935 62.9049 269.699 61.8591C268.487 60.7895 267.881 59.2921 267.881 57.3668C267.881 55.394 268.57 53.8966 269.949 52.8745C271.351 51.8525 273.039 51.3414 275.011 51.3414C276.747 51.3414 278.185 51.6623 279.326 52.3041V51.3414C279.326 50.1768 279.028 49.333 278.434 48.8101C277.864 48.2871 276.972 48.0257 275.76 48.0257C273.787 48.0257 271.981 48.5961 270.341 49.737L269.057 46.35C271.03 45.0189 273.407 44.3534 276.188 44.3534C277.139 44.3534 277.971 44.4366 278.684 44.603C279.421 44.7456 280.169 45.0427 280.93 45.4943C281.714 45.9459 282.32 46.659 282.748 47.6335C283.176 48.608 283.39 49.8202 283.39 51.2701V63H279.326ZM275.261 59.7556C276.854 59.7556 278.208 59.1732 279.326 58.0086V55.6555C278.28 55.1563 277.067 54.9067 275.689 54.9067C274.572 54.9067 273.669 55.1088 272.979 55.5128C272.29 55.9169 271.945 56.5349 271.945 57.3668C271.945 58.1036 272.231 58.686 272.801 59.1138C273.371 59.5416 274.191 59.7556 275.261 59.7556ZM296.686 63.4278C294.927 63.4278 293.548 62.798 292.55 61.5382V68.241L288.379 70.1663V44.7813H292.55V46.1717C293.548 44.9595 294.939 44.3534 296.721 44.3534C299.027 44.3534 300.845 45.1972 302.176 46.8848C303.531 48.5486 304.209 50.8898 304.209 53.9085C304.209 56.8558 303.519 59.1851 302.141 60.8965C300.762 62.584 298.944 63.4278 296.686 63.4278ZM296.08 59.4347C297.339 59.4347 298.314 58.9593 299.003 58.0086C299.693 57.0578 300.037 55.6911 300.037 53.9085C300.037 52.2209 299.693 50.8661 299.003 49.844C298.314 48.8219 297.339 48.3109 296.08 48.3109C294.535 48.3109 293.358 48.9051 292.55 50.0936V57.652C293.382 58.8405 294.559 59.4347 296.08 59.4347Z" fill="black"/>
<path d="M196.735 94V85.1444C196.735 82.7466 195.778 81.5477 193.864 81.5477C191.768 81.5477 190.72 82.7265 190.72 85.0839V94H187.184V78.5556H190.72V80.0063C191.728 78.7974 193.088 78.1929 194.801 78.1929C196.413 78.1929 197.722 78.6966 198.73 79.7041C199.757 80.7115 200.271 82.3134 200.271 84.5097V94H196.735ZM211.035 94.3627C208.838 94.3627 207.095 93.6474 205.806 92.2168C204.537 90.766 203.902 88.7813 203.902 86.2627C203.902 83.7642 204.547 81.7996 205.836 80.369C207.126 78.9183 208.859 78.1929 211.035 78.1929C213.009 78.1929 214.621 78.8074 215.87 80.0365C217.14 81.2656 217.775 83.069 217.775 85.4466C217.775 86.2727 217.734 86.9981 217.654 87.6227H207.408C207.468 88.7108 207.841 89.5873 208.526 90.2522C209.231 90.9172 210.067 91.2496 211.035 91.2496C212.405 91.2496 213.493 90.7157 214.299 89.6478L216.535 91.9448C215.185 93.5567 213.352 94.3627 211.035 94.3627ZM207.438 84.691H214.269C214.188 83.5828 213.845 82.7466 213.241 82.1824C212.637 81.5981 211.901 81.3059 211.035 81.3059C210.027 81.3059 209.191 81.588 208.526 82.1522C207.881 82.6962 207.519 83.5425 207.438 84.691ZM225.69 94.3627C223.292 94.3627 222.094 93.0429 222.094 90.4034V81.6384H219.797V78.5556H222.094V73.8709L225.63 72.1783V78.5556H229.196V81.6384H225.63V89.7082C225.63 90.6955 226.063 91.1892 226.929 91.1892C227.715 91.1892 228.521 90.9575 229.347 90.494L228.924 93.6675C228.038 94.131 226.96 94.3627 225.69 94.3627ZM235.69 94L231.459 78.5556H234.934L236.929 87.1089C237.03 87.5724 237.151 88.1769 237.292 88.9224C237.393 88.3783 237.524 87.7739 237.685 87.1089L239.952 78.5556H243.186L245.422 87.1089C245.583 87.7739 245.714 88.3783 245.815 88.9224C245.956 88.1769 246.077 87.5724 246.178 87.1089L248.203 78.5556H251.679L247.447 94H244.304L242.037 85.6582C241.735 84.4694 241.574 83.7642 241.554 83.5425C241.473 83.9455 241.312 84.6507 241.07 85.6582L238.803 94H235.69ZM261.092 94.3627C258.916 94.3627 257.193 93.6474 255.923 92.2168C254.654 90.7862 254.019 88.8116 254.019 86.2929C254.019 83.7742 254.654 81.7996 255.923 80.369C257.193 78.9183 258.916 78.1929 261.092 78.1929C263.268 78.1929 264.991 78.9183 266.26 80.369C267.549 81.7996 268.194 83.7742 268.194 86.2929C268.194 88.8116 267.56 90.7862 266.29 92.2168C265.021 93.6474 263.288 94.3627 261.092 94.3627ZM261.092 90.9776C262.2 90.9776 263.066 90.5645 263.691 89.7384C264.336 88.9123 264.658 87.7638 264.658 86.2929C264.658 84.822 264.336 83.6634 263.691 82.8171C263.066 81.9709 262.2 81.5477 261.092 81.5477C260.024 81.5477 259.167 81.9809 258.523 82.8474C257.878 83.6936 257.555 84.8421 257.555 86.2929C257.555 87.7436 257.868 88.8922 258.492 89.7384C259.137 90.5645 260.004 90.9776 261.092 90.9776ZM271.982 94V78.5556H275.519V80.1574C276.143 78.8477 277.201 78.1929 278.692 78.1929C279.78 78.1929 280.737 78.5455 281.563 79.2507L281.05 82.4847C280.284 81.9406 279.407 81.6686 278.42 81.6686C277.614 81.6686 276.929 81.9507 276.365 82.5149C275.801 83.0791 275.519 84.0261 275.519 85.356V94H271.982ZM297.713 94H293.844L289.431 85.4768L287.709 87.1694V94H284.172V73.8406L287.709 72.1783V83.0287L292.061 78.5556H296.353L291.97 82.938L297.713 94Z" fill="black"/>
<defs>
<linearGradient id="paint0_linear" x1="23" y1="65.5" x2="120" y2="65.5" gradientUnits="userSpaceOnUse">
<stop offset="0.00520833" stop-color="#243B55"/>
<stop offset="0.375" stop-color="#141E30"/>
<stop offset="1" stop-color="#243B55"/>
</linearGradient>
<linearGradient id="paint1_linear" x1="72.8615" y1="22.6309" x2="72.8614" y2="114" gradientUnits="userSpaceOnUse">
<stop stop-color="#F5F5E1"/>
<stop offset="1" stop-color="#DCDFEA"/>
</linearGradient>
</defs>
</svg>
